<?xml version="1.0" standalone="no"?>
<!DOCTYPE svg PUBLIC "-//W3C//DTD SVG 20010904//EN"
 "http://www.w3.org/TR/2001/REC-SVG-20010904/DTD/svg10.dtd">
<svg version="1.0" xmlns="http://www.w3.org/2000/svg"
 width="1580.000000pt" height="1580.000000pt" viewBox="0 0 1580.000000 1580.000000"
 preserveAspectRatio="xMidYMid meet">
<metadata>
Created by potrace 1.14, written by Peter Selinger 2001-2017
</metadata>
<g transform="translate(0.000000,1580.000000) scale(0.100000,-0.100000)"
fill="#000000" stroke="none">
<path d="M7610 15402 c-19 -9 -49 -36 -67 -60 -61 -81 -73 -172 -78 -597 -5
-435 25 -1079 60 -1315 22 -144 40 -197 75 -215 66 -34 147 -10 180 54 39 78
41 143 37 1053 -4 922 -4 927 -50 1014 -21 41 -73 84 -100 84 -12 0 -38 -8
-57 -18z"/>
<path d="M3862 14437 c-57 -27 -82 -159 -49 -252 55 -153 261 -504 568 -965
249 -374 376 -549 465 -637 52 -53 68 -63 97 -63 45 0 98 36 121 84 18 36 18
41 2 98 -22 81 -52 136 -212 404 -187 312 -636 1042 -697 1133 -117 174 -212
238 -295 198z"/>
<path d="M11766 14404 c-22 -8 -54 -25 -72 -39 -92 -70 -327 -424 -589 -885
-48 -85 -116 -204 -150 -265 -154 -271 -274 -531 -277 -600 -3 -70 61 -121
140 -112 81 9 145 87 392 482 318 507 630 1022 678 1115 60 117 76 201 52 260
-23 56 -93 74 -174 44z"/>
<path d="M7585 12619 c-348 -35 -769 -139 -1084 -269 -356 -146 -700 -364
-1021 -646 -375 -328 -730 -820 -923 -1279 -131 -308 -234 -706 -279 -1075
-20 -163 -17 -604 5 -770 48 -352 152 -743 278 -1042 63 -150 97 -218 264
-528 466 -863 757 -1555 933 -2220 39 -145 70 -294 122 -585 48 -265 109 -517
151 -623 57 -142 154 -274 263 -356 100 -75 159 -102 298 -137 192 -47 311
-51 1440 -46 l1013 4 120 26 c173 39 233 61 316 118 95 65 130 98 194 184 124
166 186 357 270 835 114 646 265 1135 553 1790 104 235 380 792 528 1060 231
421 325 653 420 1035 88 354 115 567 115 890 0 303 -23 504 -97 820 -133 574
-345 1010 -722 1485 -103 129 -402 427 -537 534 -300 238 -647 440 -966 561
-272 104 -668 197 -975 230 -149 16 -540 18 -679 4z m795 -308 c622 -93 1155
-324 1640 -709 127 -102 416 -392 519 -522 410 -518 655 -1123 721 -1779 13
-133 13 -499 0 -632 -35 -354 -134 -725 -284 -1064 -35 -79 -129 -265 -209
-412 -384 -709 -640 -1274 -822 -1818 -132 -394 -201 -668 -290 -1160 -79
-434 -139 -601 -259 -720 -66 -66 -134 -104 -236 -132 -61 -17 -146 -18 -1250
-18 -1117 0 -1189 1 -1249 18 -136 39 -226 102 -295 206 -88 134 -129 272
-201 671 -26 140 -62 325 -81 410 -174 781 -482 1541 -1044 2575 -188 347
-285 574 -365 859 -236 837 -130 1756 287 2511 243 439 593 834 996 1122 469
335 1008 541 1595 608 183 21 649 13 827 -14z"/>
<path d="M1648 11611 c-29 -26 -33 -35 -32 -78 2 -138 133 -240 624 -488 601
-302 1151 -535 1264 -535 60 0 106 55 106 127 0 100 -58 139 -680 458 -576
296 -993 502 -1060 524 -37 12 -90 21 -126 21 -56 0 -68 -3 -96 -29z"/>
<path d="M13915 11586 c-175 -46 -522 -190 -947 -392 -487 -231 -695 -344
-770 -414 -31 -31 -38 -44 -38 -76 0 -49 29 -98 71 -120 40 -20 118 -13 216
20 140 48 1389 579 1547 657 95 48 168 99 196 140 49 68 32 142 -42 177 -69
33 -130 35 -233 8z"/>
<path d="M3185 8488 c-188 -12 -1517 -176 -1649 -203 -203 -42 -289 -147 -200
-245 55 -61 118 -80 265 -80 214 0 590 45 1152 140 453 76 657 126 717 176 26
23 30 32 30 79 0 43 -5 60 -25 84 -43 50 -108 61 -290 49z"/>
<path d="M11976 8271 c-40 -41 -46 -107 -16 -155 45 -74 151 -109 955 -320
895 -234 979 -252 1075 -226 115 31 135 129 46 228 -88 97 -410 199 -1136 361
-497 110 -674 141 -813 141 -79 0 -85 -2 -111 -29z"/>
<path d="M6634 2829 c-23 -5 -59 -25 -80 -43 l-39 -34 0 -95 c0 -92 1 -97 29
-126 62 -64 -5 -62 1367 -59 l1244 3 45 27 c61 35 75 65 75 157 0 90 -16 118
-85 153 l-45 23 -1235 2 c-737 0 -1252 -3 -1276 -8z"/>
<path d="M6593 2270 c-63 -28 -83 -68 -83 -162 0 -72 2 -80 30 -112 62 -70
-14 -67 1371 -64 1193 3 1246 4 1282 22 63 31 82 68 82 158 0 83 -12 110 -69
152 -27 21 -32 21 -1299 23 -1237 3 -1273 2 -1314 -17z"/>
<path d="M6591 1728 c-63 -31 -81 -66 -81 -160 0 -72 2 -80 30 -112 63 -71
-25 -67 1372 -64 l1256 3 44 30 c52 37 71 85 66 168 -5 69 -27 103 -88 135
l-44 22 -1256 0 -1255 0 -44 -22z"/>
<path d="M7014 1138 c9 -70 65 -183 122 -247 109 -121 299 -221 517 -273 123
-29 371 -32 495 -5 361 78 618 276 661 511 6 33 11 61 11 63 0 2 -408 3 -906
3 l-907 0 7 -52z"/>
</g>
</svg>
