<?xml version="1.0" standalone="no"?>
<!DOCTYPE svg PUBLIC "-//W3C//DTD SVG 20010904//EN"
 "http://www.w3.org/TR/2001/REC-SVG-20010904/DTD/svg10.dtd">
<svg version="1.0" xmlns="http://www.w3.org/2000/svg"
 width="4094.000000pt" height="4094.000000pt" viewBox="0 0 4094.000000 4094.000000"
 preserveAspectRatio="xMidYMid meet">
<metadata>
Created by potrace 1.14, written by Peter Selinger 2001-2017
</metadata>
<g transform="translate(0.000000,4094.000000) scale(0.100000,-0.100000)"
fill="#000000" stroke="none">
<path d="M19825 40739 c-3126 -103 -6211 -938 -8975 -2430 -1478 -797 -2822
-1757 -4106 -2930 -244 -222 -951 -929 -1173 -1173 -510 -558 -945 -1083
-1363 -1646 -2355 -3170 -3732 -6955 -3967 -10900 -47 -790 -39 -1910 19
-2685 147 -1948 559 -3824 1240 -5641 428 -1141 972 -2267 1611 -3329 1805
-3004 4384 -5507 7444 -7225 369 -207 544 -299 950 -500 2649 -1310 5546
-2025 8500 -2096 l280 -7 -300 305 c-165 167 -648 658 -1073 1090 l-774 785
-196 28 c-2559 359 -5049 1278 -7237 2668 -2472 1571 -4510 3689 -5992 6227
-1222 2093 -2023 4452 -2332 6869 l-30 235 -50 50 -49 51 -8 850 c-9 1056 -9
1210 0 2250 l8 840 49 50 48 50 16 130 c302 2510 1140 4969 2429 7133 1236
2074 2838 3855 4761 5292 862 644 1685 1157 2630 1641 1831 936 3791 1551
5850 1834 l260 35 271 273 c149 149 626 630 1060 1067 434 437 792 797 796
798 5 2 489 -475 1077 -1060 l1068 -1063 154 -18 c217 -25 465 -61 749 -108
3769 -620 7247 -2406 9950 -5109 4333 -4333 6203 -10549 4980 -16555 -631
-3101 -2068 -5997 -4160 -8385 -499 -569 -1131 -1202 -1696 -1696 -2707 -2369
-6045 -3888 -9589 -4364 l-230 -31 -1003 -1002 c-552 -551 -1036 -1038 -1075
-1081 l-72 -79 360 6 c3339 61 6687 986 9620 2659 2762 1575 5108 3768 6864
6418 1823 2748 2949 5907 3276 9185 218 2194 82 4378 -410 6540 -523 2302
-1477 4553 -2775 6544 -2490 3822 -6184 6688 -10507 8151 -2302 779 -4741
1139 -7178 1059z"/>
<path d="M12110 31800 c-168 -10 -468 -36 -565 -50 -864 -123 -1483 -314
-2070 -640 -372 -207 -705 -464 -1094 -845 -931 -912 -1633 -2108 -2167 -3689
-540 -1599 -825 -3358 -895 -5521 -13 -403 -7 -1623 10 -1970 54 -1097 140
-1933 291 -2820 496 -2920 1552 -5152 3010 -6364 1026 -854 2369 -1273 3962
-1237 1075 24 1943 195 2773 546 1036 439 2187 1376 3573 2911 l132 147 0
4771 0 4771 -3230 0 -3230 0 0 -2330 0 -2330 1395 0 1395 0 0 -1054 0 -1054
-152 -145 c-984 -932 -1685 -1298 -2543 -1324 -428 -13 -788 61 -1135 233
-473 235 -853 617 -1185 1194 -478 829 -758 2114 -855 3920 -41 769 -41 1989
0 2715 91 1607 340 2797 759 3633 362 722 838 1223 1384 1456 536 229 1203
217 1712 -29 208 -100 373 -223 556 -413 419 -434 708 -1057 895 -1925 13 -63
20 -78 33 -74 115 30 3998 1182 4005 1188 15 13 -94 582 -194 1017 -221 954
-498 1752 -856 2463 -459 910 -983 1556 -1639 2022 -688 489 -1534 733 -2840
817 -215 14 -1042 21 -1235 10z"/>
<path d="M21570 20240 l0 -11190 1960 0 1960 0 0 6137 c0 3537 4 6133 9 6127
7 -7 1703 -4126 4876 -11839 l173 -420 1966 -3 1966 -2 1 907 c0 500 1 5534 2
11188 l2 10280 -1967 3 -1968 2 -2 -6185 -3 -6184 -2524 6147 c-1389 3381
-2533 6164 -2543 6185 l-18 37 -1945 0 -1945 0 0 -11190z"/>
</g>
</svg>
