<?xml version="1.0" standalone="no"?>
<!DOCTYPE svg PUBLIC "-//W3C//DTD SVG 20010904//EN"
 "http://www.w3.org/TR/2001/REC-SVG-20010904/DTD/svg10.dtd">
<svg version="1.0" xmlns="http://www.w3.org/2000/svg"
 width="200.000000pt" height="200.000000pt" viewBox="0 0 200.000000 200.000000"
 preserveAspectRatio="xMidYMid meet">
<metadata>
Created by potrace 1.14, written by Peter Selinger 2001-2017
</metadata>
<g transform="translate(0.000000,200.000000) scale(0.100000,-0.100000)"
fill="#000000" stroke="none">
<path d="M989 1966 c-2 -2 -38 -6 -79 -9 -487 -37 -877 -468 -870 -962 3 -270
100 -497 292 -686 126 -125 333 -233 486 -254 17 -3 49 -8 70 -11 42 -6 179
-6 232 0 102 13 214 47 313 97 257 130 446 373 506 650 20 92 28 253 16 329
-13 88 -19 112 -41 178 -49 147 -155 316 -254 405 -159 142 -372 238 -560 253
-36 3 -74 7 -86 9 -12 3 -23 3 -25 1z m118 -60 c244 -25 502 -179 641 -383
110 -163 161 -325 163 -518 1 -155 -30 -283 -101 -421 -96 -187 -231 -315
-396 -376 -48 -18 -80 -22 -179 -22 -104 0 -131 4 -205 28 -96 31 -250 109
-324 163 l-49 35 30 13 c16 7 45 31 64 53 l34 41 10 -47 10 -47 58 -3 c41 -2
57 1 58 10 0 7 1 139 1 293 l1 280 -129 0 -129 0 -3 -57 -3 -58 46 0 46 0 -2
-111 c-2 -121 -11 -163 -43 -204 -41 -51 -131 -34 -158 29 -10 24 -13 120 -13
396 0 330 2 368 18 397 34 63 108 74 151 22 14 -17 26 -36 27 -42 0 -7 3 -21
5 -32 2 -11 5 -47 7 -80 l2 -60 68 2 c38 0 71 4 75 8 4 3 7 54 7 113 0 113 -9
143 -57 195 -46 49 -85 62 -193 62 -110 0 -155 -16 -206 -72 -80 -89 -90 -143
-89 -510 0 -164 0 -302 0 -307 0 -12 -54 57 -97 124 -59 91 -98 192 -108 280
-4 30 -8 64 -10 76 -5 35 25 172 50 229 118 267 428 481 730 502 38 3 71 6 73
8 1 1 15 1 30 0 15 -2 55 -6 89 -9z"/>
<path d="M1087 1573 c-2 -5 -3 -264 -3 -578 l1 -570 79 -3 79 -3 -6 348 c-3
191 -8 362 -11 378 l-6 30 14 -25 c7 -14 50 -126 95 -250 46 -124 85 -232 88
-240 4 -8 25 -64 47 -125 l41 -110 73 -3 72 -3 0 581 0 580 -78 0 -78 0 2
-302 c1 -167 4 -341 8 -388 l5 -85 -19 50 c-10 28 -48 133 -85 235 -37 102
-92 254 -122 338 l-56 152 -68 0 c-37 0 -70 -3 -72 -7z"/>
</g>
</svg>
